<?xml version="1.0" encoding="windows-1252"?>
<!-- Generator: Adobe Illustrator 21.0.2, SVG Export Plug-In . SVG Version: 6.00 Build 0)  -->
<svg xmlns="http://www.w3.org/2000/svg" xmlns:xlink="http://www.w3.org/1999/xlink" version="1.1" id="Layer_1" x="0px" y="0px" viewBox="0 0 40 40" style="enable-background:new 0 0 40 40;" xml:space="preserve">
<g>
	<path style="fill:#DFF0FE;" d="M7.5,19.5c-2.757,0-5-2.218-5-4.945c0-2.246,3.282-8.512,4.997-11.545   C9.213,6.075,12.5,12.397,12.5,14.555C12.5,17.282,10.257,19.5,7.5,19.5z"/>
	<path style="fill:#4788C7;" d="M7.495,4.034C9.509,7.706,12,12.819,12,14.555C12,17.006,9.981,19,7.5,19S3,17.006,3,14.555   C3,12.747,5.484,7.667,7.495,4.034 M7.5,2C7.5,2,2,11.426,2,14.555C2,17.562,4.462,20,7.5,20s5.5-2.438,5.5-5.445   C13,11.547,7.5,2,7.5,2L7.5,2z"/>
</g>
<g>
	<path style="fill:#DFF0FE;" d="M19.5,37.5c-2.757,0-5-2.218-5-4.945c0-2.246,3.282-8.512,4.997-11.545   c1.716,3.066,5.003,9.388,5.003,11.545C24.5,35.282,22.257,37.5,19.5,37.5z"/>
	<path style="fill:#4788C7;" d="M19.495,22.034C21.509,25.706,24,30.819,24,32.555C24,35.006,21.981,37,19.5,37S15,35.006,15,32.555   C15,30.747,17.484,25.667,19.495,22.034 M19.5,20c0,0-5.5,9.426-5.5,12.555C14,35.562,16.462,38,19.5,38s5.5-2.438,5.5-5.445   C25,29.547,19.5,20,19.5,20L19.5,20z"/>
</g>
<g>
	<path style="fill:#DFF0FE;" d="M32.5,22.5c-2.757,0-5-2.218-5-4.945c0-2.246,3.282-8.512,4.997-11.545   c1.716,3.066,5.003,9.388,5.003,11.545C37.5,20.282,35.257,22.5,32.5,22.5z"/>
	<path style="fill:#4788C7;" d="M32.495,7.034C34.509,10.706,37,15.819,37,17.555C37,20.006,34.981,22,32.5,22S28,20.006,28,17.555   C28,15.747,30.484,10.667,32.495,7.034 M32.5,5c0,0-5.5,9.426-5.5,12.555C27,20.562,29.462,23,32.5,23s5.5-2.438,5.5-5.445   C38,14.547,32.5,5,32.5,5L32.5,5z"/>
</g>
</svg>